<svg xmlns="http://www.w3.org/2000/svg" fill-rule="evenodd" stroke-linejoin="round" stroke-miterlimit="2" clip-rule="evenodd" viewBox="0 0 55 55">
  <g fill="#3a5a78" fill-rule="nonzero">
    <path d="M39.892 30.107l-.282 2.532a4.674 4.674 0 0 0-.323-.167l-1.211-5.284c-.445-2.52-2.344-4.37-5.115-4.275H21.38c-2.505 0-4.688.951-5.112 4.275l-1.211 5.284a4.699 4.699 0 0 0-.324.167l-.283-2.532s-4.038-1.779-4.997 0c-.961 1.78 0 2.421 0 2.421l5.024.271c-.94.626-1.542 1.578-1.542 2.648v4.845c0 1.204.763 2.261 1.91 2.87v3.256c0 1.103 1.359 1.992 3.038 1.992 1.679 0 3.038-.892 3.038-1.992V43.71H32.9v2.707c0 1.103 1.36 1.992 3.038 1.992 1.68 0 3.038-.892 3.038-1.992v-3.021c1.435-.539 2.431-1.728 2.431-3.104v-4.846c0-1.07-.603-2.022-1.54-2.648l5.024-.271s.203-.641 0-2.421c-.202-1.78-4.999.001-4.999.001zm-18.446 9.242h-5.483v-2.604h5.483v2.604zm10.725.087h-9.393v-1.14h9.393v1.14zm.094-1.472h-9.391v-1.138h9.391v1.138zm-15.923-6.226c-.083 0-.166.009-.247.012l1.304-5.22c.242-1.48 1.885-2.759 3.501-2.759h12.544c1.614 0 3.094 1.039 3.5 2.759l1.303 5.22c-.081-.003-.165-.012-.246-.012H16.342zm22.795 7.611h-5.485v-2.604h5.485v2.604z"/>
    <path d="M27.197 4.257L0 15.821v33.928h5.806V19.68h42.393v30.069h5.806V15.821L27.197 4.257z"/>
  </g>
</svg>
