<svg xmlns="http://www.w3.org/2000/svg" fill-rule="evenodd" stroke-linejoin="round" stroke-miterlimit="2" clip-rule="evenodd" viewBox="0 0 512 512">
  <path fill="#3a5a78" fill-rule="nonzero" d="M491.318 235.318H20.682C9.26 235.318 0 244.577 0 256c0 11.423 9.26 20.682 20.682 20.682h470.636c11.423 0 20.682-9.259 20.682-20.682 0-11.422-9.259-20.682-20.682-20.682zM491.318 78.439H20.682C9.26 78.439 0 87.699 0 99.121c0 11.422 9.26 20.682 20.682 20.682h470.636c11.423 0 20.682-9.26 20.682-20.682 0-11.422-9.259-20.682-20.682-20.682zM491.318 392.197H20.682C9.26 392.197 0 401.456 0 412.879c0 11.423 9.26 20.682 20.682 20.682h470.636c11.423 0 20.682-9.259 20.682-20.682 0-11.423-9.259-20.682-20.682-20.682z"/>
</svg>
